<svg xmlns="http://www.w3.org/2000/svg">
    <symbol id="facebook" viewBox="0 0 14 24">
        <g clip-path="url(#clip0_227_77)">
            <path d="M12.0117 13.4805L12.6783 9.13806H8.51062V6.32013C8.51062 5.13212 9.09281 3.97411 10.9594 3.97411H12.8541V0.277011C12.8541 0.277011 11.1347 -0.0163574 9.49078 -0.0163574C6.05859 -0.0163574 3.81516 2.06347 3.81516 5.82852V9.13806H0V13.4805H3.81516V23.978H8.51062V13.4805H12.0117Z"  />
        </g>
    </symbol>
    <symbol id="telegram" viewBox="0 0 24 24" >
        <path d="M20.665 3.71694L2.935 10.5539C1.725 11.0399 1.732 11.7149 2.713 12.0159L7.265 13.4359L17.797 6.79094C18.295 6.48794 18.75 6.65094 18.376 6.98294L9.843 14.6839H9.841L9.843 14.6849L9.529 19.3769C9.989 19.3769 10.192 19.1659 10.45 18.9169L12.661 16.7669L17.26 20.1639C18.108 20.6309 18.717 20.3909 18.928 19.3789L21.947 5.15094C22.256 3.91194 21.474 3.35094 20.665 3.71694V3.71694Z" />
    </symbol>
    <symbol id="instagram" viewBox="0 0 24 24">
        <path d="M12.0047 6.60783C9.02344 6.60783 6.61875 9.01196 6.61875 11.9925C6.61875 14.9731 9.02344 17.3772 12.0047 17.3772C14.9859 17.3772 17.3906 14.9731 17.3906 11.9925C17.3906 9.01196 14.9859 6.60783 12.0047 6.60783ZM12.0047 15.4933C10.0781 15.4933 8.50312 13.9233 8.50312 11.9925C8.50312 10.0617 10.0734 8.49177 12.0047 8.49177C13.9359 8.49177 15.5062 10.0617 15.5062 11.9925C15.5062 13.9233 13.9312 15.4933 12.0047 15.4933V15.4933ZM18.8672 6.38757C18.8672 7.08585 18.3047 7.64353 17.6109 7.64353C16.9125 7.64353 16.3547 7.08116 16.3547 6.38757C16.3547 5.69399 16.9172 5.13162 17.6109 5.13162C18.3047 5.13162 18.8672 5.69399 18.8672 6.38757ZM22.4344 7.66227C22.3547 5.97986 21.9703 4.48958 20.7375 3.26174C19.5094 2.03391 18.0187 1.64962 16.3359 1.56527C14.6016 1.46685 9.40312 1.46685 7.66875 1.56527C5.99062 1.64493 4.5 2.02922 3.26719 3.25706C2.03437 4.48489 1.65469 5.97517 1.57031 7.65759C1.47187 9.39156 1.47187 14.5888 1.57031 16.3227C1.65 18.0052 2.03437 19.4954 3.26719 20.7233C4.5 21.9511 5.98594 22.3354 7.66875 22.4198C9.40312 22.5182 14.6016 22.5182 16.3359 22.4198C18.0187 22.3401 19.5094 21.9558 20.7375 20.7233C21.9656 19.4954 22.35 18.0052 22.4344 16.3227C22.5328 14.5888 22.5328 9.39624 22.4344 7.66227V7.66227ZM20.1937 18.1832C19.8281 19.1018 19.1203 19.8094 18.1969 20.1797C16.8141 20.728 13.5328 20.6014 12.0047 20.6014C10.4766 20.6014 7.19062 20.7233 5.8125 20.1797C4.89375 19.8141 4.18594 19.1065 3.81562 18.1832C3.26719 16.8008 3.39375 13.5203 3.39375 11.9925C3.39375 10.4647 3.27187 7.17958 3.81562 5.80177C4.18125 4.88324 4.88906 4.17559 5.8125 3.80537C7.19531 3.25706 10.4766 3.38359 12.0047 3.38359C13.5328 3.38359 16.8187 3.26174 18.1969 3.80537C19.1156 4.17091 19.8234 4.87855 20.1937 5.80177C20.7422 7.18426 20.6156 10.4647 20.6156 11.9925C20.6156 13.5203 20.7422 16.8054 20.1937 18.1832Z" />
    </symbol> 
    <symbol id="arrow" viewBox="0 0 43 56">
        <path d="M41.5 2L3 32.5L41.5 54" stroke="black" stroke-opacity="0.8" stroke-width="3"/> 
    </symbol>
</svg>