<svg width="13" height="13"  fill="none" xmlns="http://www.w3.org/2000/svg">
<path fill-rule="evenodd" clip-rule="evenodd" d="M12.9724 4.99331C12.8982 4.7662 12.6879 4.61326 12.4485 4.61326H8.3046L7.02448 0.671956V0.671198C6.94954 0.444077 6.73925 0.291138 6.49989 0.291138C6.26131 0.291138 6.05024 0.444077 5.97607 0.671963L4.69519 4.61326H0.551247C0.311898 4.61326 0.101596 4.7662 0.0274219 4.99331C-0.0467526 5.22043 0.0327708 5.4682 0.227012 5.60966L3.58025 8.04602L2.29936 11.9881C2.22519 12.216 2.30701 12.4637 2.50125 12.6037C2.5976 12.6733 2.71078 12.7085 2.82395 12.7085C2.93713 12.7085 3.05031 12.6733 3.14742 12.6029L6.49989 10.1673L9.8516 12.6029C10.0451 12.7436 10.3058 12.7436 10.4993 12.6037C10.6935 12.4637 10.7746 12.216 10.7004 11.9873L9.41954 8.04602L12.7735 5.60967C12.967 5.4682 13.0473 5.22043 12.9724 4.99332" fill="#9FC691"/>
</svg>
