<svg width="23" height="23" viewBox="0 0 23 23" fill="none" xmlns="http://www.w3.org/2000/svg">
<path d="M11.5049 5.86679C8.39941 5.86679 5.89453 8.37109 5.89453 11.4758C5.89453 14.5806 8.39941 17.0849 11.5049 17.0849C14.6104 17.0849 17.1152 14.5806 17.1152 11.4758C17.1152 8.37109 14.6104 5.86679 11.5049 5.86679ZM11.5049 15.1224C9.49805 15.1224 7.85742 13.4871 7.85742 11.4758C7.85742 9.46458 9.49316 7.82922 11.5049 7.82922C13.5166 7.82922 15.1523 9.46458 15.1523 11.4758C15.1523 13.4871 13.5117 15.1224 11.5049 15.1224ZM18.6533 5.63735C18.6533 6.36472 18.0674 6.94564 17.3447 6.94564C16.6172 6.94564 16.0361 6.35984 16.0361 5.63735C16.0361 4.91487 16.6221 4.32907 17.3447 4.32907C18.0674 4.32907 18.6533 4.91487 18.6533 5.63735ZM22.3691 6.96517C22.2861 5.21265 21.8857 3.66028 20.6016 2.38128C19.3223 1.10228 17.7695 0.701988 16.0166 0.614118C14.21 0.511603 8.79492 0.511603 6.98828 0.614118C5.24023 0.697106 3.6875 1.0974 2.40332 2.3764C1.11914 3.6554 0.723633 5.20777 0.635742 6.96029C0.533203 8.7665 0.533203 14.1803 0.635742 15.9865C0.71875 17.739 1.11914 19.2914 2.40332 20.5704C3.6875 21.8494 5.23535 22.2497 6.98828 22.3375C8.79492 22.4401 14.21 22.4401 16.0166 22.3375C17.7695 22.2546 19.3223 21.8543 20.6016 20.5704C21.8809 19.2914 22.2812 17.739 22.3691 15.9865C22.4717 14.1803 22.4717 8.77139 22.3691 6.96517ZM20.0352 17.9245C19.6543 18.8813 18.917 19.6185 17.9551 20.0041C16.5146 20.5753 13.0967 20.4435 11.5049 20.4435C9.91309 20.4435 6.49023 20.5704 5.05469 20.0041C4.09766 19.6233 3.36035 18.8862 2.97461 17.9245C2.40332 16.4844 2.53516 13.0673 2.53516 11.4758C2.53516 9.88441 2.4082 6.46236 2.97461 5.02715C3.35547 4.07034 4.09277 3.33321 5.05469 2.94756C6.49512 2.3764 9.91309 2.5082 11.5049 2.5082C13.0967 2.5082 16.5195 2.38128 17.9551 2.94756C18.9121 3.32833 19.6494 4.06546 20.0352 5.02715C20.6064 6.46724 20.4746 9.88441 20.4746 11.4758C20.4746 13.0673 20.6064 16.4893 20.0352 17.9245Z" fill="black" fill-opacity="0.6"/>
</svg>
