<svg width="22" height="22" viewBox="0 0 22 22" fill="none" xmlns="http://www.w3.org/2000/svg">
<g clip-path="url(#clip0_918_8)">
<path d="M10.945 21.4121C16.7261 21.4121 21.4126 16.7258 21.4126 10.945C21.4126 5.16418 16.7261 0.477905 10.945 0.477905C5.16389 0.477905 0.477371 5.16418 0.477371 10.945C0.477371 16.7258 5.16389 21.4121 10.945 21.4121Z" fill="#404F3A"/>
<path d="M5.06937 6.31042C4.78255 6.31041 4.54743 6.54484 4.54745 6.83181V15.0576C4.54734 15.3446 4.78219 15.5801 5.06937 15.58H16.8208C17.108 15.5801 17.3429 15.3446 17.3427 15.0576V6.83181C17.3427 6.54484 17.1076 6.31041 16.8208 6.31042H5.06937V6.31042ZM6.46049 7.56002H15.4264L10.944 11.4764L6.46049 7.56002ZM16.2988 8.18372V13.9696L13.0208 11.0476L16.2988 8.18372ZM5.59132 8.18698L8.88293 11.0633L5.59132 13.9979V8.18698V8.18698ZM12.229 11.7393L15.3475 14.5198H6.57478L9.67534 11.7556L10.5995 12.5633C10.7955 12.7344 11.0903 12.7344 11.2863 12.5633L12.229 11.7393V11.7393Z" fill="#9FC691"/>
</g>
<defs>
<clipPath id="clip0_918_8">
<rect width="21.89" height="21.89" fill="white"/>
</clipPath>
</defs>
</svg>
