<svg width="27" height="26" viewBox="0 0 27 26" fill="none" xmlns="http://www.w3.org/2000/svg">
<path fill-rule="evenodd" clip-rule="evenodd" d="M26.9424 10.0573C26.7883 9.58563 26.3515 9.26799 25.8543 9.26799H17.2478L14.5892 1.08219C14.4335 0.610477 13.9968 0.29126 13.4996 0.29126C13.0041 0.29126 12.5658 0.608903 12.4117 1.08221L9.75145 9.26799H1.14489C0.647782 9.26799 0.211005 9.58563 0.0569526 10.0573C-0.0971006 10.529 0.0680617 11.0436 0.471482 11.3374L7.43583 16.3976L4.77555 24.585C4.6215 25.0583 4.79143 25.5728 5.19485 25.8635C5.39496 26.0081 5.63002 26.0812 5.86507 26.0812C6.10013 26.0812 6.3352 26.0081 6.53688 25.8619L13.4996 20.8033L20.4608 25.8619C20.8627 26.1541 21.4041 26.1541 21.806 25.8635C22.2094 25.5728 22.3778 25.0583 22.2237 24.5833L19.5635 16.3976L26.5293 11.3375C26.9312 11.0436 27.098 10.529 26.9424 10.0573Z" fill="white"/>
</svg>
