<svg width="27" height="27" viewBox="0 0 27 27" fill="none" xmlns="http://www.w3.org/2000/svg">
<path fill-rule="evenodd" clip-rule="evenodd" d="M26.9427 10.3708C26.7886 9.8991 26.3518 9.58145 25.8546 9.58145H17.248L14.5893 1.39567C14.4337 0.923953 13.9969 0.604736 13.4998 0.604736C13.0043 0.604736 12.5659 0.922379 12.4118 1.39568L9.75155 9.58145H1.1449C0.647788 9.58145 0.211007 9.8991 0.0569531 10.3708C-0.0971016 10.8425 0.0680624 11.3571 0.471486 11.6509L7.4359 16.711L4.77559 24.8984C4.62155 25.3718 4.79148 25.8862 5.1949 26.177C5.39502 26.3215 5.63008 26.3946 5.86513 26.3946C6.10019 26.3946 6.33526 26.3215 6.53695 26.1753L13.4998 21.1168L20.461 26.1753C20.8629 26.4675 21.4044 26.4675 21.8062 26.177C22.2096 25.8862 22.378 25.3718 22.2239 24.8968L19.5637 16.711L26.5296 11.6509C26.9315 11.3571 27.0982 10.8425 26.9427 10.3708Z" fill="#3B4F33"/>
</svg>
