<svg width="26" height="26" viewBox="0 0 26 26" fill="none" xmlns="http://www.w3.org/2000/svg">
<path d="M13 21.6666C15.2985 21.6666 17.5029 20.7535 19.1283 19.1282C20.7536 17.5029 21.6667 15.2985 21.6667 13C21.6667 10.7014 20.7536 8.49702 19.1283 6.8717C17.5029 5.24639 15.2985 4.33329 13 4.33329C10.7015 4.33329 8.49706 5.24639 6.87174 6.8717C5.24643 8.49702 4.33333 10.7014 4.33333 13C4.33333 15.2985 5.24643 17.5029 6.87174 19.1282C8.49706 20.7535 10.7015 21.6666 13 21.6666V21.6666ZM13 23.8333C7.01675 23.8333 2.16667 18.9832 2.16667 13C2.16667 7.01671 7.01675 2.16663 13 2.16663C18.9832 2.16663 23.8333 7.01671 23.8333 13C23.8333 18.9832 18.9832 23.8333 13 23.8333ZM9.63083 14.2675L6.92467 13.4235C6.33967 13.2448 6.33642 12.8418 7.05575 12.5525L17.5998 8.47921C18.2119 8.23004 18.5586 8.54529 18.3603 9.33504L16.5653 17.8067C16.4396 18.4101 16.0767 18.5542 15.5729 18.2758L12.8093 16.2305L11.5213 17.4741C11.3891 17.602 11.2818 17.7114 11.0782 17.7385C10.8756 17.7666 10.7088 17.706 10.5863 17.3701L9.64383 14.2599L9.63083 14.2685V14.2675Z" fill="#404F3A"/>
</svg>
