<svg xmlns="http://www.w3.org/2000/svg">
    <symbol id="reviewStar" viewBox="0 0 13 13">
        <path fill-rule="evenodd" clip-rule="evenodd"
            d="M8.84384 7.51837C8.65114 7.65908 8.57084 7.90608 8.64426 8.13472L9.76914 11.5973L6.82349 9.4569C6.62926 9.3162 6.36926 9.3162 6.17579 9.4569L3.23014 11.5973L4.35579 8.1332C4.4292 7.90608 4.3489 7.65908 4.15543 7.51837L1.20903 5.37796H4.85055C5.0899 5.37796 5.30096 5.22426 5.37437 4.99714L6.50003 1.53379L7.6249 4.99637C7.6605 5.10729 7.73042 5.20403 7.82457 5.27261C7.91873 5.3412 8.03224 5.37809 8.14873 5.37796H11.791L8.84384 7.51837ZM12.9725 4.99408C12.8983 4.7662 12.688 4.61326 12.4487 4.61326H8.30396L7.02384 0.671956C6.94967 0.444084 6.73937 0.291138 6.50003 0.291138C6.26067 0.291138 6.04961 0.444077 5.9762 0.671963L4.69531 4.61326H0.550616C0.31126 4.61326 0.100965 4.7662 0.0267835 4.99408C-0.0466259 5.22196 0.0336694 5.46896 0.227139 5.60967L3.58037 8.04526L2.29872 11.9873C2.22531 12.2152 2.30561 12.4622 2.49984 12.6029C2.59619 12.6733 2.71014 12.7084 2.82255 12.7084C2.93649 12.7084 3.05043 12.6733 3.14678 12.6021L6.50003 10.1665L9.85172 12.6021C10.0452 12.7436 10.306 12.7436 10.5002 12.6029C10.6937 12.4622 10.774 12.2152 10.7005 11.9866L9.4189 8.04525L12.7721 5.60967C12.9664 5.46896 13.0467 5.22196 12.9725 4.99408H12.9725Z"
            fill="#9FC691" />
    </symbol>
    <symbol id="reviewStarActive" viewBox="0 0 13 13">
        <path fill-rule="evenodd" clip-rule="evenodd"
            d="M12.9724 4.99331C12.8982 4.7662 12.6879 4.61326 12.4485 4.61326H8.3046L7.02448 0.671956V0.671198C6.94954 0.444077 6.73925 0.291138 6.49989 0.291138C6.26131 0.291138 6.05024 0.444077 5.97607 0.671963L4.69519 4.61326H0.551247C0.311898 4.61326 0.101596 4.7662 0.0274219 4.99331C-0.0467526 5.22043 0.0327708 5.4682 0.227012 5.60966L3.58025 8.04602L2.29936 11.9881C2.22519 12.216 2.30701 12.4637 2.50125 12.6037C2.5976 12.6733 2.71078 12.7085 2.82395 12.7085C2.93713 12.7085 3.05031 12.6733 3.14742 12.6029L6.49989 10.1673L9.8516 12.6029C10.0451 12.7436 10.3058 12.7436 10.4993 12.6037C10.6935 12.4637 10.7746 12.216 10.7004 11.9873L9.41954 8.04602L12.7735 5.60967C12.967 5.4682 13.0473 5.22043 12.9724 4.99332"
            fill="#9FC691" />
    </symbol>
</svg>