<svg xmlns="http://www.w3.org/2000/svg">
    <symbol id="reviewStar" viewBox="0 0 13 13">
        <path fill-rule="evenodd" clip-rule="evenodd"
            d="M8.84384 7.51837C8.65114 7.65908 8.57084 7.90608 8.64426 8.13472L9.76914 11.5973L6.82349 9.4569C6.62926 9.3162 6.36926 9.3162 6.17579 9.4569L3.23014 11.5973L4.35579 8.1332C4.4292 7.90608 4.3489 7.65908 4.15543 7.51837L1.20903 5.37796H4.85055C5.0899 5.37796 5.30096 5.22426 5.37437 4.99714L6.50003 1.53379L7.6249 4.99637C7.6605 5.10729 7.73042 5.20403 7.82457 5.27261C7.91873 5.3412 8.03224 5.37809 8.14873 5.37796H11.791L8.84384 7.51837ZM12.9725 4.99408C12.8983 4.7662 12.688 4.61326 12.4487 4.61326H8.30396L7.02384 0.671956C6.94967 0.444084 6.73937 0.291138 6.50003 0.291138C6.26067 0.291138 6.04961 0.444077 5.9762 0.671963L4.69531 4.61326H0.550616C0.31126 4.61326 0.100965 4.7662 0.0267835 4.99408C-0.0466259 5.22196 0.0336694 5.46896 0.227139 5.60967L3.58037 8.04526L2.29872 11.9873C2.22531 12.2152 2.30561 12.4622 2.49984 12.6029C2.59619 12.6733 2.71014 12.7084 2.82255 12.7084C2.93649 12.7084 3.05043 12.6733 3.14678 12.6021L6.50003 10.1665L9.85172 12.6021C10.0452 12.7436 10.306 12.7436 10.5002 12.6029C10.6937 12.4622 10.774 12.2152 10.7005 11.9866L9.4189 8.04525L12.7721 5.60967C12.9664 5.46896 13.0467 5.22196 12.9725 4.99408H12.9725Z"
            fill="#9FC691" />
    </symbol>
    <symbol id="reviewStarActive" viewBox="0 0 13 13">
        <path fill-rule="evenodd" clip-rule="evenodd"
            d="M12.9724 4.99331C12.8982 4.7662 12.6879 4.61326 12.4485 4.61326H8.3046L7.02448 0.671956V0.671198C6.94954 0.444077 6.73925 0.291138 6.49989 0.291138C6.26131 0.291138 6.05024 0.444077 5.97607 0.671963L4.69519 4.61326H0.551247C0.311898 4.61326 0.101596 4.7662 0.0274219 4.99331C-0.0467526 5.22043 0.0327708 5.4682 0.227012 5.60966L3.58025 8.04602L2.29936 11.9881C2.22519 12.216 2.30701 12.4637 2.50125 12.6037C2.5976 12.6733 2.71078 12.7085 2.82395 12.7085C2.93713 12.7085 3.05031 12.6733 3.14742 12.6029L6.49989 10.1673L9.8516 12.6029C10.0451 12.7436 10.3058 12.7436 10.4993 12.6037C10.6935 12.4637 10.7746 12.216 10.7004 11.9873L9.41954 8.04602L12.7735 5.60967C12.967 5.4682 13.0473 5.22043 12.9724 4.99332"
            fill="#9FC691" />
    </symbol>
    <symbol id="reviewFormStars" viewBox="0 0 27 26">
        <path fill-rule="evenodd" clip-rule="evenodd" d="M26.9424 10.0573C26.7883 9.58563 26.3515 9.26799 25.8543 9.26799H17.2478L14.5892 1.08219C14.4335 0.610477 13.9968 0.29126 13.4996 0.29126C13.0041 0.29126 12.5658 0.608903 12.4117 1.08221L9.75145 9.26799H1.14489C0.647782 9.26799 0.211005 9.58563 0.0569526 10.0573C-0.0971006 10.529 0.0680617 11.0436 0.471482 11.3374L7.43583 16.3976L4.77555 24.585C4.6215 25.0583 4.79143 25.5728 5.19485 25.8635C5.39496 26.0081 5.63002 26.0812 5.86507 26.0812C6.10013 26.0812 6.3352 26.0081 6.53688 25.8619L13.4996 20.8033L20.4608 25.8619C20.8627 26.1541 21.4041 26.1541 21.806 25.8635C22.2094 25.5728 22.3778 25.0583 22.2237 24.5833L19.5635 16.3976L26.5293 11.3375C26.9312 11.0436 27.098 10.529 26.9424 10.0573Z" fill="white"/>

    </symbol>
    <symbol id="reviewFormStarsActive" viewBox="0 0 27 27">
        <path fill-rule="evenodd" clip-rule="evenodd" d="M26.9427 10.3708C26.7886 9.8991 26.3518 9.58145 25.8546 9.58145H17.248L14.5893 1.39567C14.4337 0.923953 13.9969 0.604736 13.4998 0.604736C13.0043 0.604736 12.5659 0.922379 12.4118 1.39568L9.75155 9.58145H1.1449C0.647788 9.58145 0.211007 9.8991 0.0569531 10.3708C-0.0971016 10.8425 0.0680624 11.3571 0.471486 11.6509L7.4359 16.711L4.77559 24.8984C4.62155 25.3718 4.79148 25.8862 5.1949 26.177C5.39502 26.3215 5.63008 26.3946 5.86513 26.3946C6.10019 26.3946 6.33526 26.3215 6.53695 26.1753L13.4998 21.1168L20.461 26.1753C20.8629 26.4675 21.4044 26.4675 21.8062 26.177C22.2096 25.8862 22.378 25.3718 22.2239 24.8968L19.5637 16.711L26.5296 11.6509C26.9315 11.3571 27.0982 10.8425 26.9427 10.3708Z" fill="#3B4F33"/>
        
    </symbol>
</svg>